<svg width="54" height="40" viewBox="0 0 54 40" fill="none" xmlns="http://www.w3.org/2000/svg">
<g clip-path="url(#clip0_11_27)">
<path fill-rule="evenodd" clip-rule="evenodd" d="M24.2286 13.6571L24.1681 12.0668C24.1552 11.573 23.9857 11.0961 23.6843 10.7054C23.3829 10.3146 22.9653 10.0304 22.492 9.89384C15.3093 7.70871 11.5395 6.4037 10.3051 2.88928C10.0187 4.00085 9.96821 5.16035 10.1569 6.29272C10.3455 7.4251 10.7692 8.50512 11.4003 9.46287L24.2286 13.6571Z" fill="#0083CB"/>
<path fill-rule="evenodd" clip-rule="evenodd" d="M29.7714 13.657L29.8319 11.9878C29.8436 11.5128 30 11.0528 30.2802 10.6697C30.5604 10.2867 30.951 9.99889 31.3992 9.8452L51.9184 2.52502L50.5872 7.0713L29.7714 13.657Z" fill="#8CBF30"/>
<path fill-rule="evenodd" clip-rule="evenodd" d="M9.85119 31.4294C16.1806 33.6874 22.9397 33.736 25.8624 40L24.9487 17.827C24.9349 17.3399 24.7684 16.8696 24.4729 16.4828C24.1775 16.096 23.7681 15.8124 23.3028 15.6722L0 8.30957L6.49888 28.0121C6.74837 28.8071 7.18232 29.5314 7.76508 30.1254C8.34784 30.7195 9.06278 31.1664 9.85119 31.4294Z" fill="#E30613"/>
<path fill-rule="evenodd" clip-rule="evenodd" d="M44.1488 31.4294C37.8557 33.6753 31.0603 33.736 28.1618 40L29.0755 17.827C29.0911 17.3404 29.2583 16.8709 29.5535 16.4845C29.8487 16.098 30.2571 15.814 30.7214 15.6722L54 8.30957L47.489 28.0121C47.2407 28.8058 46.8086 29.5292 46.2281 30.1232C45.6475 30.7171 44.935 31.1648 44.1488 31.4294V31.4294Z" fill="#F8AB08"/>
<path fill-rule="evenodd" clip-rule="evenodd" d="M17.7721 7.16232C16.459 4.98326 15.8297 2.84061 16.7131 0.77688C12.6226 -1.17153 9.66966 0.825438 11.9207 3.56899C13.258 5.2139 15.0188 6.37324 17.7721 7.16232Z" fill="#006DA6"/>
</g>
<defs>
<clipPath id="clip0_11_27">
<rect width="54" height="40" fill="white"/>
</clipPath>
</defs>
</svg>
