<svg width="193" height="40" viewBox="0 0 193 40" fill="none" xmlns="http://www.w3.org/2000/svg">
<g clip-path="url(#clip0_18_341)">
<path fill-rule="evenodd" clip-rule="evenodd" d="M24.2286 13.6571L24.1681 12.0668C24.1552 11.573 23.9857 11.0961 23.6843 10.7054C23.3829 10.3146 22.9653 10.0304 22.492 9.89384C15.3093 7.70871 11.5395 6.4037 10.3051 2.88928C10.0187 4.00085 9.96821 5.16035 10.1569 6.29272C10.3455 7.4251 10.7692 8.50512 11.4003 9.46287L24.2286 13.6571Z" fill="#0083CB"/>
<path fill-rule="evenodd" clip-rule="evenodd" d="M29.7714 13.657L29.8319 11.9878C29.8436 11.5128 30 11.0528 30.2802 10.6697C30.5604 10.2867 30.951 9.99889 31.3992 9.8452L51.9184 2.52502L50.5872 7.0713L29.7714 13.657Z" fill="#8CBF30"/>
<path fill-rule="evenodd" clip-rule="evenodd" d="M9.85119 31.4294C16.1806 33.6874 22.9397 33.736 25.8624 40L24.9487 17.827C24.9349 17.3399 24.7684 16.8696 24.4729 16.4828C24.1775 16.096 23.7681 15.8124 23.3028 15.6722L0 8.30957L6.49888 28.0121C6.74837 28.8071 7.18232 29.5314 7.76508 30.1254C8.34784 30.7195 9.06279 31.1664 9.85119 31.4294Z" fill="#E30613"/>
<path fill-rule="evenodd" clip-rule="evenodd" d="M44.1488 31.4294C37.8557 33.6753 31.0603 33.736 28.1618 40L29.0755 17.827C29.0911 17.3404 29.2583 16.8709 29.5535 16.4845C29.8487 16.098 30.2571 15.814 30.7214 15.6722L54 8.30957L47.489 28.0121C47.2407 28.8058 46.8086 29.5292 46.2281 30.1232C45.6475 30.7171 44.935 31.1648 44.1488 31.4294Z" fill="#F8AB08"/>
<path fill-rule="evenodd" clip-rule="evenodd" d="M17.7721 7.16231C16.459 4.98326 15.8297 2.84061 16.7131 0.77688C12.6226 -1.17153 9.66966 0.825438 11.9207 3.56899C13.258 5.2139 15.0188 6.37324 17.7721 7.16231Z" fill="#006DA6"/>
</g>
<path d="M73.152 27H70.62V9.3H74.772L81.444 25.032V9.3H83.988V27H79.776L73.152 11.376V27ZM92.9972 27.24C91.6852 27.24 90.5252 26.956 89.5172 26.388C88.5172 25.82 87.7332 25.04 87.1652 24.048C86.6052 23.048 86.3252 21.904 86.3252 20.616C86.3252 19.336 86.6052 18.204 87.1652 17.22C87.7332 16.228 88.5172 15.456 89.5172 14.904C90.5252 14.344 91.6852 14.064 92.9972 14.064C94.3092 14.064 95.4652 14.344 96.4652 14.904C97.4732 15.456 98.2572 16.228 98.8172 17.22C99.3852 18.204 99.6692 19.336 99.6692 20.616C99.6692 21.904 99.3852 23.048 98.8172 24.048C98.2572 25.04 97.4732 25.82 96.4652 26.388C95.4652 26.956 94.3092 27.24 92.9972 27.24ZM92.9972 25.008C94.1972 25.008 95.1732 24.608 95.9252 23.808C96.6772 23.008 97.0532 21.944 97.0532 20.616C97.0532 19.296 96.6772 18.248 95.9252 17.472C95.1732 16.688 94.1972 16.296 92.9972 16.296C91.7972 16.296 90.8212 16.688 90.0692 17.472C89.3172 18.248 88.9412 19.296 88.9412 20.616C88.9412 21.944 89.3172 23.008 90.0692 23.808C90.8212 24.608 91.7972 25.008 92.9972 25.008ZM107.325 27.216C106.765 27.216 106.209 27.136 105.657 26.976C105.113 26.808 104.661 26.484 104.301 26.004C103.941 25.524 103.761 24.808 103.761 23.856V16.416H100.701V14.256H102.309C102.765 14.256 103.093 14.228 103.293 14.172C103.501 14.108 103.629 13.956 103.677 13.716C103.733 13.468 103.761 13.064 103.761 12.504V10.044H106.365V14.256H110.265V16.416H106.365V22.992C106.365 23.632 106.441 24.136 106.593 24.504C106.753 24.872 107.113 25.056 107.673 25.056C107.913 25.056 108.141 25.036 108.357 24.996C108.573 24.956 108.737 24.912 108.849 24.864V26.988C108.705 27.044 108.501 27.096 108.237 27.144C107.973 27.192 107.669 27.216 107.325 27.216ZM124.377 22.992C124.313 23.68 124.033 24.352 123.537 25.008C123.041 25.664 122.333 26.204 121.413 26.628C120.493 27.052 119.373 27.264 118.053 27.264C116.733 27.264 115.569 26.984 114.561 26.424C113.561 25.864 112.781 25.088 112.221 24.096C111.661 23.104 111.381 21.96 111.381 20.664C111.381 19.352 111.665 18.2 112.233 17.208C112.801 16.216 113.585 15.444 114.585 14.892C115.593 14.332 116.753 14.052 118.065 14.052C119.393 14.052 120.541 14.332 121.509 14.892C122.485 15.452 123.237 16.224 123.765 17.208C124.293 18.192 124.557 19.324 124.557 20.604C124.557 20.748 124.553 20.924 124.545 21.132C124.537 21.332 124.525 21.468 124.509 21.54H113.985C114.145 22.652 114.581 23.52 115.293 24.144C116.013 24.768 116.961 25.08 118.137 25.08C118.961 25.08 119.633 24.972 120.153 24.756C120.681 24.54 121.077 24.272 121.341 23.952C121.605 23.632 121.753 23.312 121.785 22.992H124.377ZM118.089 16.212C117.009 16.212 116.109 16.504 115.389 17.088C114.669 17.672 114.213 18.48 114.021 19.512H121.833C121.769 18.616 121.425 17.844 120.801 17.196C120.177 16.54 119.273 16.212 118.089 16.212ZM136.279 27L131.191 19.152L129.499 21.396V27H126.895V9.3H129.499V17.772L135.967 9.3H138.775L132.787 17.184L139.183 27H136.279ZM141.171 27V8.244H143.775V15.84C144.263 15.288 144.867 14.852 145.587 14.532C146.315 14.212 147.119 14.052 147.999 14.052C149.535 14.052 150.727 14.512 151.575 15.432C152.431 16.344 152.859 17.616 152.859 19.248V27H150.255V19.896C150.255 18.752 150.019 17.884 149.547 17.292C149.083 16.7 148.319 16.404 147.255 16.404C146.183 16.404 145.335 16.708 144.711 17.316C144.087 17.924 143.775 18.7 143.775 19.644V27H141.171ZM160.084 27.252C158.644 27.252 157.48 26.916 156.592 26.244C155.712 25.572 155.272 24.636 155.272 23.436C155.272 22.58 155.496 21.872 155.944 21.312C156.4 20.752 157.024 20.32 157.816 20.016C158.616 19.704 159.524 19.5 160.54 19.404C162.044 19.252 163.108 19.104 163.732 18.96C164.356 18.816 164.668 18.58 164.668 18.252V18.228C164.668 17.58 164.392 17.088 163.84 16.752C163.288 16.416 162.5 16.248 161.476 16.248C160.396 16.248 159.56 16.44 158.968 16.824C158.384 17.2 158.092 17.8 158.092 18.624H155.536C155.536 17.648 155.788 16.82 156.292 16.14C156.804 15.46 157.508 14.944 158.404 14.592C159.3 14.232 160.328 14.052 161.488 14.052C162.552 14.052 163.52 14.216 164.392 14.544C165.272 14.864 165.972 15.344 166.492 15.984C167.012 16.624 167.272 17.42 167.272 18.372V24.456C167.272 24.752 167.28 25.04 167.296 25.32C167.32 25.592 167.368 25.836 167.44 26.052C167.512 26.3 167.596 26.508 167.692 26.676C167.796 26.836 167.88 26.944 167.944 27H165.352C165.304 26.952 165.232 26.852 165.136 26.7C165.048 26.54 164.968 26.356 164.896 26.148C164.832 25.972 164.784 25.772 164.752 25.548C164.296 26.068 163.664 26.484 162.856 26.796C162.056 27.1 161.132 27.252 160.084 27.252ZM160.624 25.092C161.368 25.092 162.048 24.976 162.664 24.744C163.28 24.504 163.768 24.144 164.128 23.664C164.496 23.176 164.68 22.564 164.68 21.828V20.724C164.184 20.868 163.628 20.988 163.012 21.084C162.396 21.172 161.768 21.248 161.128 21.312C160.048 21.416 159.236 21.604 158.692 21.876C158.148 22.148 157.876 22.604 157.876 23.244C157.876 24.476 158.792 25.092 160.624 25.092ZM175.073 27.216C174.513 27.216 173.957 27.136 173.405 26.976C172.861 26.808 172.409 26.484 172.049 26.004C171.689 25.524 171.509 24.808 171.509 23.856V16.416H168.449V14.256H170.057C170.513 14.256 170.841 14.228 171.041 14.172C171.249 14.108 171.377 13.956 171.425 13.716C171.481 13.468 171.509 13.064 171.509 12.504V10.044H174.113V14.256H178.013V16.416H174.113V22.992C174.113 23.632 174.189 24.136 174.341 24.504C174.501 24.872 174.861 25.056 175.421 25.056C175.661 25.056 175.889 25.036 176.105 24.996C176.321 24.956 176.485 24.912 176.597 24.864V26.988C176.453 27.044 176.249 27.096 175.985 27.144C175.721 27.192 175.417 27.216 175.073 27.216ZM184.061 27.252C182.621 27.252 181.457 26.916 180.569 26.244C179.689 25.572 179.249 24.636 179.249 23.436C179.249 22.58 179.473 21.872 179.921 21.312C180.377 20.752 181.001 20.32 181.793 20.016C182.593 19.704 183.501 19.5 184.517 19.404C186.021 19.252 187.085 19.104 187.709 18.96C188.333 18.816 188.645 18.58 188.645 18.252V18.228C188.645 17.58 188.369 17.088 187.817 16.752C187.265 16.416 186.477 16.248 185.453 16.248C184.373 16.248 183.537 16.44 182.945 16.824C182.361 17.2 182.069 17.8 182.069 18.624H179.513C179.513 17.648 179.765 16.82 180.269 16.14C180.781 15.46 181.485 14.944 182.381 14.592C183.277 14.232 184.305 14.052 185.465 14.052C186.529 14.052 187.497 14.216 188.369 14.544C189.249 14.864 189.949 15.344 190.469 15.984C190.989 16.624 191.249 17.42 191.249 18.372V24.456C191.249 24.752 191.257 25.04 191.273 25.32C191.297 25.592 191.345 25.836 191.417 26.052C191.489 26.3 191.573 26.508 191.669 26.676C191.773 26.836 191.857 26.944 191.921 27H189.329C189.281 26.952 189.209 26.852 189.113 26.7C189.025 26.54 188.945 26.356 188.873 26.148C188.809 25.972 188.761 25.772 188.729 25.548C188.273 26.068 187.641 26.484 186.833 26.796C186.033 27.1 185.109 27.252 184.061 27.252ZM184.601 25.092C185.345 25.092 186.025 24.976 186.641 24.744C187.257 24.504 187.745 24.144 188.105 23.664C188.473 23.176 188.657 22.564 188.657 21.828V20.724C188.161 20.868 187.605 20.988 186.989 21.084C186.373 21.172 185.745 21.248 185.105 21.312C184.025 21.416 183.213 21.604 182.669 21.876C182.125 22.148 181.853 22.604 181.853 23.244C181.853 24.476 182.769 25.092 184.601 25.092Z" fill="#181818"/>
<defs>
<clipPath id="clip0_18_341">
<rect width="54" height="40" fill="white"/>
</clipPath>
</defs>
</svg>
